<?xml version="1.0" encoding="UTF-8" standalone="no"?>
<svg
   xmlns:dc="http://purl.org/dc/elements/1.1/"
   xmlns:cc="http://creativecommons.org/ns#"
   xmlns:rdf="http://www.w3.org/1999/02/22-rdf-syntax-ns#"
   xmlns:svg="http://www.w3.org/2000/svg"
   xmlns="http://www.w3.org/2000/svg"
   xmlns:sodipodi="http://sodipodi.sourceforge.net/DTD/sodipodi-0.dtd"
   xmlns:inkscape="http://www.inkscape.org/namespaces/inkscape"
   width="800.000"
   height="600.000"
   viewBox="0.0 0.0 800.000 600.000"
   version="1.1"
   id="svg3823"
   sodipodi:docname="discimus.svg"
   inkscape:version="0.92.4 (5da689c313, 2019-01-14)">
  <metadata
     id="metadata3829">
    <rdf:RDF>
      <cc:Work
         rdf:about="">
        <dc:format>image/svg+xml</dc:format>
        <dc:type
           rdf:resource="http://purl.org/dc/dcmitype/StillImage" />
        <dc:title>Produce by Acme CAD Converter</dc:title>
      </cc:Work>
    </rdf:RDF>
  </metadata>
  <defs
     id="defs3827" />
  <sodipodi:namedview
     pagecolor="#ffffff"
     bordercolor="#666666"
     borderopacity="1"
     objecttolerance="10"
     gridtolerance="10"
     guidetolerance="10"
     inkscape:pageopacity="0"
     inkscape:pageshadow="2"
     inkscape:window-width="2560"
     inkscape:window-height="1377"
     id="namedview3825"
     showgrid="false"
     inkscape:zoom="1.03"
     inkscape:cx="242.23301"
     inkscape:cy="300"
     inkscape:window-x="-8"
     inkscape:window-y="-8"
     inkscape:window-maximized="1"
     inkscape:current-layer="svg3823" />
  <title
     id="title3781">Produce by Acme CAD Converter</title>
  <desc
     id="desc3783">Produce by Acme CAD Converter</desc>
  <path
     d="m 432.95709,340.72078 7.73,-0.2 m 0,0 7.71,-0.6 m 0,0 7.67,-0.99 m 0,0 7.61,-1.38 m 0,0 7.52,-1.78 m 0,0 7.42,-2.16 m 0,0 7.31,-2.54 m 0,0 7.16,-2.91 m 0,0 7,-3.28 m 0,0 6.83,-3.63 m 0,0 6.62,-3.99 m 0,0 6.42,-4.31 m 0,0 6.18,-4.64 m 0,0 5.94,-4.95 m 0,0 5.67,-5.26 m 0,0 5.4,-5.53 m 0,0 5.1,-5.81 m 0,0 4.8,-6.06 m 0,0 4.48,-6.31 m 0,0 4.15,-6.52 m 0,0 3.81,-6.73 m 0,0 3.46,-6.91 m 0,0 3.09,-7.09 m 0,0 2.73,-7.23 m 0,0 2.35,-7.37 m 0,0 1.97,-7.48 m 0,0 1.58,-7.56 m 0,0 1.19,-7.64 m 0,0 0.8,-7.69 m 0,0 0.4,-7.72 m 0,0 v -7.74 m 0,0 -0.4,-7.72 m 0,0 -0.8,-7.69 m 0,0 -1.19,-7.64 m 0,0 -1.58,-7.57 m 0,0 -1.97,-7.47 m 0,0 -2.35,-7.37 m 0,0 -2.73,-7.23 m 0,0 -3.09,-7.09 m 0,0 -3.46,-6.91 m 0,0 -3.81,-6.73 m 0,0 -4.15,-6.53 m 0,0 -4.48,-6.3 m 0,0 -4.8,-6.060003 m 0,0 -5.1,-5.81 m 0,0 -5.4,-5.53 m 0,0 -5.67,-5.26 m 0,0 -5.94,-4.95 m 0,0 -6.18,-4.64 m 0,0 -6.42,-4.32 m 0,0 -6.62,-3.98 m 0,0 -6.83,-3.63 m 0,0 -7,-3.28 m 0,0 -7.16,-2.91 m 0,0 -7.31,-2.54 m 0,0 -7.42,-2.16 m 0,0 -7.52,-1.78 m 0,0 -7.61,-1.38 m 0,0 -7.67,-1 m 0,0 -7.71,-0.59 m 0,0 -7.73,-0.2"
     id="path3785"
     inkscape:connector-curvature="0"
     style="fill:none;stroke:#000000;stroke-width:0.5" />
  <path
     d="m 432.95709,272.47078 5.72,-0.19 m 0,0 5.68,-0.6 m 0,0 5.63,-0.99 m 0,0 5.55,-1.39 m 0,0 5.43,-1.76 m 0,0 5.3,-2.15 m 0,0 5.14,-2.5 m 0,0 4.95,-2.86 m 0,0 4.74,-3.2 m 0,0 4.5,-3.52 m 0,0 4.25,-3.82 m 0,0 3.97,-4.11 m 0,0 3.68,-4.38 m 0,0 3.36,-4.63 m 0,0 3.03,-4.84 m 0,0 2.68,-5.05 m 0,0 2.33,-5.22 m 0,0 1.95,-5.37 m 0,0 1.58,-5.5 m 0,0 1.18,-5.59 m 0,0 0.8,-5.66 m 0,0 0.4,-5.7 m 0,0 v -5.72 m 0,0 -0.4,-5.7 m 0,0 -0.8,-5.66 m 0,0 -1.18,-5.59 m 0,0 -1.58,-5.5 m 0,0 -1.95,-5.37 m 0,0 -2.33,-5.22 m 0,0 -2.68,-5.05 m 0,0 -3.03,-4.85 m 0,0 -3.36,-4.62 m 0,0 -3.68,-4.38 m 0,0 -3.97,-4.11 m 0,0 -4.25,-3.83 m 0,0 -4.5,-3.52 m 0,0 -4.74,-3.19 m 0,0 -4.95,-2.86 m 0,0 -5.14,-2.51 m 0,0 -5.3,-2.14 m 0,0 -5.43,-1.76 m 0,0 -5.55,-1.39 m 0,0 -5.63,-0.99 m 0,0 -5.68,-0.6 m 0,0 -5.72,-0.2"
     id="path3787"
     inkscape:connector-curvature="0"
     style="fill:none;stroke:#000000;stroke-width:0.5" />
  <path
     d="m 364.71709,340.72078 -5.72,0.2 m 0,0 -5.68,0.6 m 0,0 -5.63,0.99 m 0,0 -5.55,1.38 m 0,0 -5.43,1.77 m 0,0 -5.3,2.14 m 0,0 -5.14,2.51 m 0,0 -4.95,2.85 m 0,0 -4.74,3.2 m 0,0 -4.5,3.52 m 0,0 -4.25,3.83 m 0,0 -3.97,4.11 m 0,0 -3.68,4.38 m 0,0 -3.36,4.62 m 0,0 -3.03,4.85 m 0,0 -2.68,5.05 m 0,0 -2.32,5.22 m 0,0 -1.96,5.37 m 0,0 -1.58,5.49 m 0,0 -1.18,5.6 m 0,0 -0.8,5.66 m 0,0 -0.4,5.7 m 0,0 v 5.71 m 0,0 0.4,5.71 m 0,0 0.8,5.66 m 0,0 1.18,5.59 m 0,0 1.58,5.49 m 0,0 1.96,5.37 m 0,0 2.32,5.23 m 0,0 2.68,5.04 m 0,0 3.03,4.85 m 0,0 3.36,4.63 m 0,0 3.68,4.37 m 0,0 3.97,4.12 m 0,0 4.25,3.82 m 0,0 4.5,3.52 m 0,0 4.74,3.2 m 0,0 4.95,2.86 m 0,0 5.14,2.5 m 0,0 5.3,2.14 m 0,0 5.43,1.77 m 0,0 5.55,1.38 m 0,0 5.63,0.99 m 0,0 5.68,0.6 m 0,0 5.72,0.2"
     id="path3789"
     inkscape:connector-curvature="0"
     style="fill:none;stroke:#000000;stroke-width:0.5" />
  <path
     d="m 364.71709,272.47078 -7.73,0.2 m 0,0 -7.71,0.6 m 0,0 -7.67,0.99 m 0,0 -7.6,1.39 m 0,0 -7.53,1.78 m 0,0 -7.42,2.16 m 0,0 -7.31,2.54 m 0,0 -7.16,2.91 m 0,0 -7,3.28 m 0,0 -6.82,3.63 m 0,0 -6.63,3.98 m 0,0 -6.42,4.32 m 0,0 -6.18,4.64 m 0,0 -5.94,4.95 m 0,0 -5.67,5.25 m 0,0 -5.4,5.54 m 0,0 -5.1,5.81 m 0,0 -4.8,6.06 m 0,0 -4.48,6.3 m 0,0 -4.15,6.52 m 0,0 -3.81,6.73 m 0,0 -3.46,6.92 m 0,0 -3.09,7.08 m 0,0 -2.73,7.24 m 0,0 -2.35,7.36 m 0,0 -1.97,7.48 m 0,0 -1.58,7.57 m 0,0 -1.19,7.64 m 0,0 -0.8,7.69 m 0,0 -0.39,7.72 m 0,0 v 7.73 m 0,0 0.39,7.72 m 0,0 0.8,7.69 m 0,0 1.19,7.64 m 0,0 1.58,7.57 m 0,0 1.97,7.48 m 0,0 2.35,7.36 m 0,0 2.73,7.24 m 0,0 3.09,7.08 m 0,0 3.46,6.92 m 0,0 3.81,6.73 m 0,0 4.15,6.52 m 0,0 4.48,6.3 m 0,0 4.8,6.07 m 0,0 5.1,5.8 m 0,0 5.4,5.54 m 0,0 5.67,5.25 m 0,0 5.94,4.96 m 0,0 6.18,4.64 m 0,0 6.42,4.31 m 0,0 6.63,3.98 m 0,0 6.82,3.64 m 0,0 7,3.27 m 0,0 7.16,2.92 m 0,0 7.31,2.54 m 0,0 7.42,2.16 m 0,0 7.53,1.77 m 0,0 7.6,1.39 m 0,0 7.67,0.99 m 0,0 7.71,0.6 m 0,0 7.73,0.2"
     id="path3791"
     inkscape:connector-curvature="0"
     style="fill:none;stroke:#000000;stroke-width:0.5" />
  <path
     d="m 364.71709,217.88078 h 68.24"
     id="path3793"
     inkscape:connector-curvature="0"
     style="fill:none;stroke:#000000;stroke-width:0.5" />
  <path
     d="m 364.71709,40.440777 h 68.24"
     id="path3795"
     inkscape:connector-curvature="0"
     style="fill:none;stroke:#000000;stroke-width:0.5" />
  <path
     d="M 364.71709,40.440777 V 217.88078"
     id="path3797"
     inkscape:connector-curvature="0"
     style="fill:none;stroke:#000000;stroke-width:0.5" />
  <path
     d="m 432.95709,108.68078 v 109.2"
     id="path3799"
     inkscape:connector-curvature="0"
     style="fill:none;stroke:#000000;stroke-width:0.5" />
  <path
     d="m 432.95709,504.51078 v -109.19"
     id="path3803"
     inkscape:connector-curvature="0"
     style="fill:none;stroke:#000000;stroke-width:0.5" />
  <path
     d="m 364.71709,504.51078 v -109.19"
     id="path3805"
     inkscape:connector-curvature="0"
     style="fill:none;stroke:#000000;stroke-width:0.5" />
  <path
     d="m 364.71709,572.76078 h 68.24"
     id="path3807"
     inkscape:connector-curvature="0"
     style="fill:none;stroke:#000000;stroke-width:0.5" />
  <path
     d="m 364.71709,395.32078 h 68.24"
     id="path3809"
     inkscape:connector-curvature="0"
     style="fill:none;stroke:#000000;stroke-width:0.5" />
  <path
     d="m 432.95709,572.76078 v -177.44"
     id="path3813"
     inkscape:connector-curvature="0"
     style="fill:none;stroke:#000000;stroke-width:0.5" />
  <path
     d="m 364.71709,504.51078 v -109.19"
     id="path3815"
     inkscape:connector-curvature="0"
     style="fill:none;stroke:#000000;stroke-width:0.5" />
  <path
     d="m 364.71709,340.72078 h 68.24"
     id="path3817"
     inkscape:connector-curvature="0"
     style="fill:none;stroke:#000000;stroke-width:0.5" />
  <path
     d="m 364.71709,272.47078 h 68.24"
     id="path3819"
     inkscape:connector-curvature="0"
     style="fill:none;stroke:#000000;stroke-width:0.5" />
  <path
     style="fill:#0078d4;fill-opacity:1;stroke:#0078d4;stroke-width:5;stroke-miterlimit:4;stroke-dasharray:none;stroke-opacity:1"
     d="m 348.73787,571.14442 c -49.9891,-5.74395 -94.31209,-36.23095 -116.83335,-80.36235 -11.13765,-21.82469 -16.16555,-43.03064 -16.17246,-68.20986 -0.007,-24.28972 4.51758,-44.01639 14.99645,-65.38774 20.75319,-42.32551 57.46261,-70.71974 104.90256,-81.14068 9.03107,-1.98383 13.23263,-2.17957 60.19418,-2.80447 46.86656,-0.62362 51.00738,-0.81588 57.76699,-2.68215 14.89381,-4.11205 25.57676,-10.22978 36.73494,-21.03673 11.61391,-11.24835 18.77622,-23.68847 23.02443,-39.99079 2.13266,-8.18401 2.41893,-27.25692 0.53793,-35.84033 -5.52742,-25.22281 -22.02872,-46.16299 -45.08368,-57.21129 -10.04863,-4.81546 -19.03999,-7.27695 -29.46001,-8.06501 l -7.11284,-0.53795 v 54.50907 54.50907 H 398.73787 365.24272 V 128.95106 41.008913 l 43.4466,0.429528 c 39.6032,0.391532 44.30079,0.611665 53.10243,2.488425 59.98964,12.791494 105.11552,57.645774 117.57268,116.865044 7.70236,36.61571 -0.0164,77.85978 -20.67442,110.47023 -20.54993,32.43987 -57.09273,57.69311 -94.73676,65.46869 -13.72005,2.83396 -25.18599,3.42961 -66.34357,3.44652 -31.22685,0.0128 -42.63868,0.34298 -48.12239,1.39219 -35.67021,6.82484 -62.66143,36.15262 -66.78664,72.56819 -5.14197,45.39108 28.97807,86.51898 75.25588,90.71256 l 7.28619,0.66026 V 451.0077 396.50486 h 33.49515 33.49514 v 87.86408 87.86407 l -38.10679,-0.12596 c -20.95874,-0.0693 -41.3835,-0.50245 -45.38835,-0.96263 z"
     id="path3831"
     inkscape:connector-curvature="0" />
</svg>
